Coordinates
version=1
nRows=21
nColumns=12
inDegrees=yes

Units are S.I. units (second, meters, Newtons, ...)
Angles are in degrees

endheader
time	SC_y	SC_z	SC_x	AC_y	AC_z	AC_x	GH_y	GH_z	GH_yy	EL_x	PS_y
       0.0              -42.79         -1.942          28.22          61.51         -14.23         -3.221          2.534          88.79         -108.7          34.98          70.02
   0.04816              -42.78         -1.941          28.22          61.51         -14.23         -3.222          2.515          88.78         -108.7          34.98          70.01
   0.09632              -42.78          -1.94          28.23          61.51         -14.23         -3.224          2.495          88.78         -108.7          34.98          70.01
    0.1445              -42.78          -1.94          28.23          61.51         -14.22         -3.225          2.474          88.77         -108.7          34.97          70.01
    0.1926              -42.78         -1.939          28.23           61.5         -14.22         -3.226          2.452          88.76         -108.7          34.97           70.0
    0.2408              -42.78         -1.938          28.24           61.5         -14.22         -3.227          2.428          88.75         -108.7          34.97           70.0
     0.289              -42.78         -1.937          28.24           61.5         -14.21         -3.229          2.402          88.74         -108.7          34.96           70.0
    0.3371              -42.78         -1.936          28.25           61.5         -14.21         -3.231          2.374          88.73         -108.6          34.96          69.99
    0.3853              -42.77         -1.935          28.26           61.5          -14.2         -3.232          2.345          88.72         -108.6          34.95          69.99
    0.4334              -42.77         -1.934          28.26          61.49          -14.2         -3.234          2.313          88.71         -108.6          34.95          69.99
    0.4816              -42.77         -1.932          28.27          61.49         -14.19         -3.236          2.279           88.7         -108.6          34.94          69.98
    0.5298              -42.77         -1.931          28.28          61.49         -14.19         -3.238          2.243          88.68         -108.6          34.94          69.98
    0.5779              -42.77          -1.93          28.28          61.48         -14.18          -3.24          2.203          88.67         -108.6          34.93          69.97
    0.6261              -42.76         -1.928          28.29          61.48         -14.17         -3.243          2.161          88.65         -108.6          34.92          69.96
    0.6742              -42.76         -1.926           28.3          61.48         -14.17         -3.245          2.115          88.63         -108.6          34.91          69.96
    0.7224              -42.76         -1.924          28.31          61.47         -14.16         -3.248          2.065          88.62         -108.5          34.91          69.95
    0.7706              -42.75         -1.922          28.32          61.47         -14.15         -3.251           2.01           88.6         -108.5           34.9          69.94
    0.8187              -42.75          -1.92          28.33          61.46         -14.14         -3.255          1.951          88.57         -108.5          34.89          69.93
    0.8669              -42.75         -1.918          28.35          61.46         -14.13         -3.259          1.887          88.55         -108.5          34.88          69.93
     0.915              -42.74         -1.915          28.36          61.45         -14.12         -3.263          1.816          88.52         -108.5          34.87          69.92
    0.9632              -42.74         -1.912          28.38          61.45         -14.11         -3.267          1.738          88.49         -108.4          34.85          69.91
